<svg width="14" height="14" viewBox="0 0 14 14" fill="none" xmlns="http://www.w3.org/2000/svg">
<path d="M10.0001 0.792969L7.73955 3.05347L4.36955 4.01747C4.04448 4.10485 3.74624 4.2717 3.50168 4.503C3.25712 4.73429 3.07391 5.02277 2.96855 5.34247L0.930054 11.637L1.64705 12.354L2.36405 13.071L8.66055 11.031C8.97851 10.9256 9.26544 10.7431 9.49576 10.4999C9.72608 10.2566 9.89262 9.9602 9.98055 9.63697L10.9451 6.26297L13.2071 3.99997L10.0001 0.792969ZM10.0001 2.20697L11.7931 3.99997L10.5001 5.29297L8.70705 3.49997L10.0001 2.20697ZM7.85505 4.06247L9.93755 6.14447L9.01655 9.36947C8.97257 9.53386 8.88854 9.6848 8.77197 9.80879C8.6554 9.93277 8.50993 10.0259 8.34855 10.08L2.84505 11.8625L5.74255 8.96497C5.8265 8.98779 5.91306 8.99955 6.00005 8.99997C6.26527 8.99997 6.51962 8.89461 6.70716 8.70708C6.8947 8.51954 7.00005 8.26519 7.00005 7.99997C7.00005 7.73475 6.8947 7.4804 6.70716 7.29286C6.51962 7.10533 6.26527 6.99997 6.00005 6.99997C5.84683 7.00014 5.6957 7.03553 5.55833 7.10338C5.42096 7.17124 5.30101 7.26975 5.20775 7.39132C5.1145 7.5129 5.05043 7.65427 5.02048 7.80453C4.99054 7.9548 4.99552 8.10994 5.03505 8.25797L2.13755 11.155L3.91905 5.65497C3.97338 5.49177 4.06752 5.34468 4.19297 5.227C4.31842 5.10932 4.47122 5.02476 4.63755 4.98097L7.85555 4.06197L7.85505 4.06247Z" fill="white"/>
</svg>
