<svg width="22" height="22" viewBox="0 0 22 22" fill="none" xmlns="http://www.w3.org/2000/svg">
<path fill-rule="evenodd" clip-rule="evenodd" d="M10.945 0.25H11.055C12.422 0.25 13.525 0.25 14.392 0.367C15.292 0.487 16.05 0.747 16.652 1.348C17.392 2.088 17.62 3.075 17.702 4.299C17.946 4.31567 18.176 4.33833 18.392 4.367C19.292 4.487 20.05 4.747 20.652 5.348C21.254 5.95 21.512 6.708 21.634 7.608C21.75 8.475 21.75 9.578 21.75 10.945V11.055C21.75 12.422 21.75 13.525 21.634 14.392C21.512 15.292 21.254 16.05 20.652 16.652C19.912 17.392 18.925 17.62 17.701 17.702C17.685 17.946 17.6627 18.176 17.634 18.392C17.512 19.292 17.254 20.05 16.652 20.652C16.05 21.254 15.292 21.512 14.392 21.634C13.525 21.75 12.422 21.75 11.055 21.75H10.945C9.578 21.75 8.475 21.75 7.608 21.634C6.708 21.512 5.95 21.254 5.348 20.652C4.746 20.05 4.488 19.292 4.367 18.392C4.33767 18.176 4.315 17.946 4.299 17.702C3.075 17.62 2.089 17.392 1.349 16.652C0.746 16.05 0.488 15.292 0.367 14.392C0.25 13.525 0.25 12.422 0.25 11.055V10.945C0.25 9.578 0.25 8.475 0.367 7.608C0.487 6.708 0.747 5.95 1.348 5.348C1.95 4.746 2.708 4.488 3.608 4.367C3.83714 4.33636 4.06728 4.31368 4.298 4.299C4.38 3.075 4.608 2.089 5.348 1.349C5.95 0.746 6.708 0.488 7.608 0.367C8.475 0.25 9.578 0.25 10.945 0.25ZM5.807 4.253C6.16367 4.25033 6.543 4.24933 6.945 4.25H15.055C15.4563 4.25 15.8357 4.251 16.193 4.253C16.111 3.233 15.926 2.745 15.591 2.409C15.314 2.132 14.926 1.952 14.191 1.853C13.436 1.752 12.435 1.75 11 1.75C9.565 1.75 8.563 1.752 7.808 1.853C7.074 1.952 6.686 2.133 6.409 2.409C6.074 2.745 5.889 3.232 5.807 4.253ZM4.253 16.193C4.25033 15.8363 4.24933 15.457 4.25 15.055V13.75H4C3.80109 13.75 3.61032 13.671 3.46967 13.5303C3.32902 13.3897 3.25 13.1989 3.25 13C3.25 12.8011 3.32902 12.6103 3.46967 12.4697C3.61032 12.329 3.80109 12.25 4 12.25H18C18.1989 12.25 18.3897 12.329 18.5303 12.4697C18.671 12.6103 18.75 12.8011 18.75 13C18.75 13.1989 18.671 13.3897 18.5303 13.5303C18.3897 13.671 18.1989 13.75 18 13.75H17.75V15.055C17.75 15.4563 17.749 15.8357 17.747 16.193C18.767 16.111 19.256 15.926 19.591 15.591C19.868 15.314 20.048 14.926 20.147 14.191C20.248 13.436 20.25 12.435 20.25 11C20.25 9.565 20.248 8.563 20.147 7.808C20.048 7.074 19.867 6.686 19.591 6.409C19.314 6.132 18.926 5.952 18.191 5.853C17.436 5.752 16.435 5.75 15 5.75H7C5.565 5.75 4.563 5.752 3.808 5.853C3.074 5.952 2.686 6.133 2.409 6.409C2.132 6.686 1.952 7.074 1.853 7.809C1.752 8.563 1.75 9.565 1.75 11C1.75 12.435 1.752 13.437 1.853 14.192C1.952 14.926 2.133 15.314 2.409 15.591C2.745 15.926 3.232 16.111 4.253 16.193ZM16.25 13.75H5.75V15C5.75 16.435 5.752 17.436 5.853 18.192C5.952 18.926 6.133 19.314 6.409 19.591C6.686 19.868 7.074 20.048 7.809 20.147C8.563 20.248 9.565 20.25 11 20.25C12.435 20.25 13.437 20.248 14.192 20.147C14.926 20.048 15.314 19.867 15.591 19.591C15.868 19.314 16.048 18.926 16.147 18.191C16.248 17.436 16.25 16.435 16.25 15V13.75ZM4.25 9C4.25 8.80109 4.32902 8.61032 4.46967 8.46967C4.61032 8.32902 4.80109 8.25 5 8.25H8C8.19891 8.25 8.38968 8.32902 8.53033 8.46967C8.67098 8.61032 8.75 8.80109 8.75 9C8.75 9.19891 8.67098 9.38968 8.53033 9.53033C8.38968 9.67098 8.19891 9.75 8 9.75H5C4.80109 9.75 4.61032 9.67098 4.46967 9.53033C4.32902 9.38968 4.25 9.19891 4.25 9ZM7.25 15.805C7.25 15.6061 7.32902 15.4153 7.46967 15.2747C7.61032 15.134 7.80109 15.055 8 15.055H14C14.1989 15.055 14.3897 15.134 14.5303 15.2747C14.671 15.4153 14.75 15.6061 14.75 15.805C14.75 16.0039 14.671 16.1947 14.5303 16.3353C14.3897 16.476 14.1989 16.555 14 16.555H8C7.80109 16.555 7.61032 16.476 7.46967 16.3353C7.32902 16.1947 7.25 16.0039 7.25 15.805ZM7.25 18.305C7.25 18.1061 7.32902 17.9153 7.46967 17.7747C7.61032 17.634 7.80109 17.555 8 17.555H12C12.1989 17.555 12.3897 17.634 12.5303 17.7747C12.671 17.9153 12.75 18.1061 12.75 18.305C12.75 18.5039 12.671 18.6947 12.5303 18.8353C12.3897 18.976 12.1989 19.055 12 19.055H8C7.80109 19.055 7.61032 18.976 7.46967 18.8353C7.32902 18.6947 7.25 18.5039 7.25 18.305Z" fill="white"/>
</svg>
